<?xml version="1.0" standalone="no"?>
<!DOCTYPE svg PUBLIC "-//W3C//DTD SVG 1.1//EN" "http://www.w3.org/Graphics/SVG/1.1/DTD/svg11.dtd">
<svg width="100%" height="100%" viewBox="0 0 1100 1100" version="1.1" xmlns="http://www.w3.org/2000/svg" xmlns:xlink="http://www.w3.org/1999/xlink" xml:space="preserve" style="fill-rule:evenodd;clip-rule:evenodd;stroke-linejoin:round;stroke-miterlimit:1.41421;">
    <g transform="matrix(2.08333,0,0,2.08333,-1116.67,-908.333)">
        <circle cx="800" cy="700" r="240" style="fill:rgb(8,160,89);"/>
    </g>
    <g transform="matrix(1.94739,0,0,1.94739,-1319.49,-599.404)">
        <path d="M779.272,504.519C780.033,502.919 780.815,501.329 781.618,499.75C786.814,489.536 792.891,479.772 799.755,470.597C806.587,461.464 814.197,452.914 822.475,445.068C830.761,437.215 839.714,430.068 849.21,423.733C858.432,417.581 868.165,412.196 878.279,407.657C886.275,404.069 894.508,401.01 902.908,398.509C911.039,396.088 919.326,394.19 927.701,392.828C934.567,391.711 941.492,390.954 948.438,390.557C950.785,390.423 953.134,390.33 955.484,390.278C956.774,390.25 958.064,390.235 959.353,390.229C959.784,390.228 960.216,390.228 960.647,390.229C961.936,390.235 963.226,390.25 964.516,390.278C966.866,390.33 969.215,390.423 971.562,390.557C978.508,390.954 985.433,391.711 992.299,392.828C1000.67,394.19 1008.96,396.088 1017.09,398.509C1025.49,401.01 1033.72,404.069 1041.72,407.657C1046.08,409.615 1050.38,411.73 1054.59,413.997L1045.59,418.342C1043.41,417.251 1041.2,416.202 1038.98,415.196C1031.32,411.73 1023.43,408.77 1015.38,406.346C1007.77,404.057 1000.03,402.244 992.201,400.921C985.422,399.774 978.581,398.994 971.718,398.58C968.229,398.37 964.736,398.26 961.242,398.232C960.621,398.229 960,398.228 959.379,398.229C956.086,398.245 952.795,398.333 949.507,398.51C942.633,398.881 935.779,399.619 928.985,400.724C921.337,401.968 913.765,403.678 906.324,405.843C897.87,408.303 889.587,411.351 881.554,414.956C871.845,419.313 862.502,424.483 853.65,430.388C844.531,436.471 835.934,443.334 827.979,450.874C820.029,458.408 812.721,466.618 806.161,475.388C799.687,484.043 793.942,493.241 789.013,502.859C787.963,504.909 786.949,506.978 785.974,509.064C792.538,514.543 797.348,522.055 799.431,530.629C802.973,529.618 806.711,529.077 810.576,529.077C822.779,529.077 833.731,534.476 841.171,543.013C847.903,540.211 855.286,538.664 863.027,538.664C881.307,538.664 897.588,547.291 908.016,560.694C914.208,556.864 921.505,554.653 929.315,554.653C934.909,554.653 940.241,555.788 945.091,557.839L987.347,523.846L987.027,523.521C985.717,522.191 984.409,520.859 983.11,519.519C982.892,519.295 982.675,519.071 982.459,518.847C982.212,518.592 981.77,518.157 981.533,517.838C980.92,517.011 980.646,515.959 980.779,514.938C980.837,514.486 980.895,514.381 981.038,513.951C981.242,513.448 981.447,512.945 981.652,512.442C982.145,511.246 982.643,510.052 983.148,508.86C982.906,508.891 982.664,508.924 982.422,508.957C980.873,509.18 979.333,509.466 977.811,509.831C972.388,511.129 967.157,513.369 962.639,516.66C961.596,517.42 960.593,518.234 959.638,519.101C959.22,519.481 958.813,519.872 958.411,520.269L958.05,520.587C957.697,520.828 957.617,520.906 957.225,521.081C956.784,521.277 956.309,521.393 955.828,521.421C955.185,521.458 954.537,521.338 953.951,521.073C953.657,520.941 953.381,520.774 953.128,520.576C953.002,520.476 952.888,520.363 952.768,520.256L942.341,509.829C942.234,509.709 942.121,509.595 942.022,509.469C941.823,509.216 941.656,508.941 941.524,508.648C941.193,507.915 941.09,507.088 941.232,506.296C941.316,505.822 941.487,505.365 941.734,504.951C941.879,504.709 942.012,504.543 942.178,504.33C942.354,504.102 942.532,503.875 942.711,503.649C943.362,502.825 944.028,502.011 944.707,501.209C946.886,498.637 949.21,496.185 951.678,493.887C955.603,490.233 959.898,486.972 964.519,484.246C969.465,481.329 974.777,479.036 980.306,477.481C984.358,476.341 988.518,475.596 992.713,475.241C995.255,475.026 997.806,474.958 1000.36,475.015L1000.55,475.02C1000.73,474.733 1000.91,474.447 1001.09,474.16C1001.35,473.754 1001.61,473.349 1001.87,472.944C1002.78,471.541 1003.7,470.148 1004.64,468.769C1006.36,466.255 1008.15,463.786 1010,461.368C1015.13,454.666 1020.79,448.361 1027.02,442.664C1030.71,439.285 1034.61,436.124 1038.69,433.223C1042.39,430.597 1046.23,428.188 1050.21,426.017C1054.4,423.731 1058.74,421.711 1063.18,419.972C1067.72,418.195 1072.37,416.711 1077.1,415.512C1083.83,413.804 1090.7,412.676 1097.62,412.057C1101.76,411.686 1105.91,411.502 1110.07,411.469C1110.57,411.466 1111.07,411.465 1111.57,411.465C1111.82,411.466 1112.07,411.467 1112.32,411.469C1112.62,411.471 1112.88,411.467 1113.17,411.505C1113.33,411.525 1113.49,411.555 1113.64,411.594C1114.42,411.789 1115.13,412.22 1115.66,412.818C1115.98,413.176 1116.23,413.591 1116.4,414.037C1116.51,414.335 1116.59,414.646 1116.63,414.962C1116.65,415.121 1116.65,415.28 1116.66,415.439C1116.67,415.941 1116.67,416.443 1116.67,416.944C1116.67,421.115 1116.51,425.285 1116.17,429.442C1115.61,436.273 1114.56,443.066 1112.95,449.728C1111.7,454.904 1110.11,459.997 1108.16,464.956C1106.35,469.602 1104.22,474.128 1101.81,478.494C1099.35,482.934 1096.6,487.206 1093.58,491.284C1090.73,495.143 1087.63,498.827 1084.35,502.328C1078.48,508.594 1071.99,514.267 1065.1,519.4C1062.46,521.373 1059.75,523.267 1057,525.087C1055.61,526.003 1054.21,526.898 1052.81,527.78C1052.82,528.131 1052.82,528.483 1052.83,528.834C1052.85,530.813 1052.8,532.791 1052.66,534.765C1052.42,538.236 1051.92,541.689 1051.15,545.082C1050.06,549.875 1048.42,554.541 1046.29,558.969C1044.22,563.242 1041.7,567.287 1038.81,571.048C1036.01,574.697 1032.87,578.078 1029.47,581.186C1027.65,582.855 1025.76,584.441 1023.81,585.959L1023.58,586.133C1023.23,586.373 1023.15,586.451 1022.76,586.624C1022.32,586.82 1021.84,586.934 1021.36,586.961C1020.72,586.998 1020.07,586.877 1019.49,586.613C1019.2,586.48 1018.92,586.313 1018.67,586.115C1018.54,586.016 1018.43,585.903 1018.31,585.796L1007.88,575.369C1007.77,575.249 1007.66,575.135 1007.56,575.009C1007.36,574.756 1007.2,574.479 1007.06,574.186C1006.87,573.747 1006.75,573.272 1006.72,572.791C1006.68,572.149 1006.79,571.5 1007.06,570.912C1007.19,570.619 1007.35,570.342 1007.55,570.088C1007.77,569.81 1008.02,569.567 1008.27,569.315C1008.46,569.114 1008.46,569.115 1008.65,568.913C1009.09,568.441 1009.52,567.96 1009.93,567.466C1010.74,566.493 1011.5,565.474 1012.2,564.418C1014.65,560.72 1016.39,556.583 1017.51,552.3C1018.09,550.121 1018.5,547.905 1018.77,545.67L1018.81,545.417L1018.83,545.178C1018.29,545.408 1017.74,545.636 1017.2,545.863C1016.45,546.175 1015.69,546.486 1014.94,546.793C1014.61,546.928 1014.08,547.161 1013.7,547.26C1012.87,547.478 1011.98,547.422 1011.19,547.103C1010.87,546.975 1010.57,546.807 1010.3,546.604C1010.16,546.502 1010.04,546.383 1009.91,546.273C1009.48,545.859 1009.05,545.443 1008.62,545.027C1006.91,543.368 1005.21,541.701 1003.52,540.028L968.269,583.846C969.325,587.458 969.89,591.278 969.89,595.228C969.89,598.643 969.468,601.96 968.672,605.13C990.322,609.474 1006.65,628.611 1006.65,651.532C1006.65,656.812 1005.78,661.891 1004.19,666.635C1021.24,671.435 1033.76,687.116 1033.76,705.699C1033.76,707.468 1033.65,709.212 1033.43,710.922C1049.5,718.344 1061.53,733.031 1065.31,750.759C1066.14,750.212 1066.96,749.659 1067.79,749.099C1076.69,743.043 1085.08,736.24 1092.86,728.786C1101.04,720.939 1108.53,712.37 1115.21,703.21C1122.04,693.848 1128.03,683.869 1133.06,673.43C1137.21,664.81 1140.72,655.879 1143.54,646.733C1146.52,637.042 1148.73,627.114 1150.13,617.072C1151.32,608.592 1151.94,600.032 1152,591.469C1152.08,578.672 1150.9,565.868 1148.45,553.307C1146.67,544.194 1144.23,535.211 1141.14,526.454C1138.1,517.824 1134.43,509.415 1130.18,501.311C1125.53,492.426 1120.17,483.909 1114.19,475.859C1115.21,472.878 1116.23,469.795 1117.26,466.7C1118.27,467.987 1119.27,469.286 1120.25,470.597C1127.11,479.772 1133.19,489.536 1138.38,499.75C1142.71,508.256 1146.42,517.072 1149.48,526.111C1152.46,534.895 1154.82,543.887 1156.54,553.001C1158.85,565.267 1160,577.747 1160,590.228C1160,599.576 1159.36,608.924 1158.06,618.182C1156.65,628.239 1154.47,638.187 1151.54,647.91C1148.55,657.85 1144.77,667.553 1140.27,676.904C1135.11,687.598 1129,697.828 1122.03,707.439C1114.98,717.161 1107.06,726.248 1098.39,734.56C1089.43,743.156 1079.67,750.921 1069.28,757.719C1058.98,764.457 1048.06,770.244 1036.69,774.972C1024.19,780.176 1011.15,784.095 997.84,786.647C985.377,789.037 972.689,790.228 960,790.228C947.311,790.228 934.623,789.037 922.16,786.647C908.854,784.095 895.814,780.176 883.305,774.972C871.941,770.244 861.018,764.457 850.718,757.719C840.326,750.921 830.569,743.156 821.607,734.56C812.941,726.248 805.02,717.161 797.972,707.439C791.004,697.828 784.891,687.598 779.735,676.904C775.226,667.553 771.451,657.85 768.458,647.91C765.53,638.187 763.351,628.239 761.942,618.182C760.645,608.924 760,599.576 760,590.228C760,577.747 761.152,565.267 763.465,553.001C765.183,543.887 767.541,534.895 770.516,526.111C773.009,518.751 775.935,511.537 779.272,504.52L779.272,504.519L779.272,504.519ZM959.926,721.497L959.926,717.249C960.726,717.617 961.502,717.801 962.254,717.801C962.99,717.801 963.638,717.657 964.198,717.369C964.758,717.081 965.222,716.677 965.59,716.157C965.958,715.637 966.238,715.013 966.43,714.285C966.622,713.557 966.718,712.761 966.718,711.897C966.718,710.089 966.254,708.657 965.326,707.601C964.398,706.545 963.062,706.017 961.318,706.017C960.55,706.017 959.77,706.073 958.978,706.185C958.186,706.297 957.518,706.441 956.974,706.617L956.974,721.497L959.926,721.497ZM926.974,712.857C926.99,712.729 927.002,712.561 927.01,712.353C927.018,712.145 927.022,711.945 927.022,711.753C927.022,709.865 926.59,708.429 925.726,707.445C924.862,706.461 923.598,705.969 921.934,705.969C921.262,705.969 920.606,706.097 919.966,706.353C919.326,706.609 918.758,706.989 918.262,707.493C917.766,707.997 917.366,708.625 917.062,709.377C916.758,710.129 916.606,711.001 916.606,711.993C916.606,712.953 916.75,713.793 917.038,714.513C917.326,715.233 917.738,715.837 918.274,716.325C918.81,716.813 919.458,717.181 920.218,717.429C920.978,717.677 921.838,717.801 922.798,717.801C923.518,717.801 924.166,717.741 924.742,717.621C925.318,717.501 925.862,717.353 926.374,717.177L925.966,714.657C925.598,714.785 925.146,714.913 924.61,715.041C924.074,715.169 923.51,715.233 922.918,715.233C921.958,715.233 921.174,715.021 920.566,714.597C919.959,714.174 919.655,713.594 919.654,712.857L926.974,712.857ZM890.518,711.897C890.518,711.081 890.646,710.313 890.902,709.593C891.158,708.873 891.55,708.245 892.078,707.709C892.606,707.173 893.274,706.749 894.082,706.437C894.89,706.125 895.854,705.969 896.974,705.969C897.646,705.969 898.254,706.017 898.798,706.113C899.342,706.209 899.894,706.369 900.454,706.593L899.806,708.969C899.486,708.857 899.13,708.757 898.738,708.669C898.346,708.581 897.846,708.537 897.238,708.537C896.534,708.537 895.946,708.621 895.474,708.789C895.002,708.957 894.622,709.189 894.334,709.485C894.046,709.781 893.838,710.137 893.71,710.553C893.582,710.969 893.518,711.417 893.518,711.897C893.518,712.937 893.81,713.753 894.394,714.345C894.978,714.937 895.974,715.233 897.382,715.233C897.846,715.233 898.33,715.201 898.834,715.137C899.338,715.073 899.798,714.969 900.214,714.825L900.646,717.249C900.23,717.409 899.726,717.541 899.134,717.645C898.542,717.749 897.846,717.801 897.046,717.801C895.894,717.801 894.906,717.649 894.082,717.345C893.258,717.041 892.582,716.625 892.054,716.097C891.526,715.569 891.138,714.945 890.89,714.225C890.642,713.505 890.518,712.729 890.518,711.897ZM947.734,715.305C948.454,715.305 949.006,715.253 949.39,715.149C949.774,715.045 949.966,714.833 949.966,714.513C949.966,714.305 949.906,714.129 949.786,713.985C949.666,713.841 949.498,713.717 949.282,713.613C949.066,713.509 948.818,713.409 948.538,713.313C948.258,713.217 947.966,713.121 947.662,713.025C947.23,712.897 946.79,712.749 946.342,712.581C945.894,712.413 945.486,712.201 945.118,711.945C944.75,711.689 944.446,711.365 944.206,710.973C943.966,710.581 943.846,710.089 943.846,709.497C943.846,709.017 943.938,708.565 944.122,708.141C944.306,707.717 944.594,707.341 944.986,707.013C945.378,706.685 945.878,706.429 946.486,706.245C947.094,706.061 947.822,705.969 948.67,705.969C949.406,705.969 950.09,706.025 950.722,706.137C951.354,706.249 951.902,706.409 952.366,706.617L951.91,709.113C951.638,709.033 951.214,708.901 950.638,708.717C950.062,708.533 949.414,708.441 948.694,708.441C947.942,708.441 947.434,708.533 947.17,708.717C946.906,708.901 946.774,709.097 946.774,709.305C946.774,709.481 946.834,709.637 946.954,709.773C947.074,709.909 947.234,710.033 947.434,710.145C947.634,710.257 947.866,710.365 948.13,710.469C948.394,710.573 948.678,710.673 948.982,710.769C949.414,710.913 949.862,711.073 950.326,711.249C950.79,711.425 951.21,711.645 951.586,711.909C951.962,712.173 952.27,712.509 952.51,712.917C952.75,713.325 952.87,713.825 952.87,714.417C952.87,714.881 952.782,715.321 952.606,715.737C952.43,716.153 952.138,716.513 951.73,716.817C951.322,717.121 950.79,717.361 950.134,717.537C949.478,717.713 948.67,717.801 947.71,717.801C946.734,717.801 945.902,717.689 945.214,717.465C944.526,717.241 943.974,717.041 943.558,716.865L944.014,714.393C944.574,714.617 945.17,714.825 945.802,715.017C946.434,715.209 947.078,715.305 947.734,715.305ZM1006.17,712.857C1006.19,712.729 1006.2,712.561 1006.21,712.353C1006.22,712.145 1006.22,711.945 1006.22,711.753C1006.22,709.865 1005.79,708.429 1004.93,707.445C1004.06,706.461 1002.8,705.969 1001.13,705.969C1000.46,705.969 999.806,706.097 999.166,706.353C998.526,706.609 997.958,706.989 997.462,707.493C996.966,707.997 996.566,708.625 996.262,709.377C995.958,710.129 995.806,711.001 995.806,711.993C995.806,712.953 995.95,713.793 996.238,714.513C996.526,715.233 996.938,715.837 997.474,716.325C998.01,716.813 998.658,717.181 999.418,717.429C1000.18,717.677 1001.04,717.801 1002,717.801C1002.72,717.801 1003.37,717.741 1003.94,717.621C1004.52,717.501 1005.06,717.353 1005.57,717.177L1005.17,714.657C1004.8,714.785 1004.35,714.913 1003.81,715.041C1003.27,715.169 1002.71,715.233 1002.12,715.233C1001.16,715.233 1000.37,715.021 999.766,714.597C999.159,714.174 998.855,713.594 998.854,712.857L1006.17,712.857ZM882.022,705.969C882.95,705.969 883.722,706.077 884.338,706.293C884.954,706.509 885.446,706.813 885.814,707.205C886.182,707.597 886.446,708.077 886.606,708.645C886.766,709.213 886.846,709.849 886.846,710.553L886.846,717.273C886.414,717.369 885.774,717.481 884.926,717.609C884.078,717.737 883.126,717.801 882.07,717.801C881.35,717.801 880.698,717.737 880.114,717.609C879.53,717.481 879.03,717.269 878.614,716.973C878.198,716.677 877.878,716.293 877.654,715.821C877.43,715.349 877.318,714.769 877.318,714.081C877.318,713.425 877.446,712.873 877.702,712.425C877.958,711.977 878.302,711.617 878.734,711.345C879.166,711.073 879.662,710.877 880.222,710.757C880.782,710.637 881.366,710.577 881.974,710.577C882.742,710.577 883.422,710.641 884.014,710.769L884.014,710.409C884.014,709.849 883.838,709.381 883.486,709.005C883.134,708.629 882.526,708.441 881.662,708.441C881.102,708.441 880.562,708.481 880.042,708.561C879.522,708.641 879.102,708.737 878.782,708.849L878.374,706.473C878.742,706.345 879.262,706.229 879.934,706.125C880.606,706.021 881.302,705.969 882.022,705.969ZM974.422,705.969C975.35,705.969 976.122,706.077 976.738,706.293C977.354,706.509 977.846,706.813 978.214,707.205C978.582,707.597 978.846,708.077 979.006,708.645C979.166,709.213 979.246,709.849 979.246,710.553L979.246,717.273C978.814,717.369 978.174,717.481 977.326,717.609C976.478,717.737 975.526,717.801 974.47,717.801C973.75,717.801 973.098,717.737 972.514,717.609C971.93,717.481 971.43,717.269 971.014,716.973C970.598,716.677 970.278,716.293 970.054,715.821C969.83,715.349 969.718,714.769 969.718,714.081C969.718,713.425 969.846,712.873 970.102,712.425C970.358,711.977 970.702,711.617 971.134,711.345C971.566,711.073 972.062,710.877 972.622,710.757C973.182,710.637 973.766,710.577 974.374,710.577C975.142,710.577 975.822,710.641 976.414,710.769L976.414,710.409C976.414,709.849 976.238,709.381 975.886,709.005C975.534,708.629 974.926,708.441 974.062,708.441C973.502,708.441 972.962,708.481 972.442,708.561C971.922,708.641 971.502,708.737 971.182,708.849L970.774,706.473C971.142,706.345 971.662,706.229 972.334,706.125C973.006,706.021 973.702,705.969 974.422,705.969ZM982.918,711.897C982.918,711.081 983.046,710.313 983.302,709.593C983.558,708.873 983.95,708.245 984.478,707.709C985.006,707.173 985.674,706.749 986.482,706.437C987.29,706.125 988.254,705.969 989.374,705.969C990.046,705.969 990.654,706.017 991.198,706.113C991.742,706.209 992.294,706.369 992.854,706.593L992.206,708.969C991.886,708.857 991.53,708.757 991.138,708.669C990.746,708.581 990.246,708.537 989.638,708.537C988.934,708.537 988.346,708.621 987.874,708.789C987.402,708.957 987.022,709.189 986.734,709.485C986.446,709.781 986.238,710.137 986.11,710.553C985.982,710.969 985.918,711.417 985.918,711.897C985.918,712.937 986.21,713.753 986.794,714.345C987.378,714.937 988.374,715.233 989.782,715.233C990.246,715.233 990.73,715.201 991.234,715.137C991.738,715.073 992.198,714.969 992.614,714.825L993.046,717.249C992.63,717.409 992.126,717.541 991.534,717.645C990.942,717.749 990.246,717.801 989.446,717.801C988.294,717.801 987.306,717.649 986.482,717.345C985.658,717.041 984.982,716.625 984.454,716.097C983.926,715.569 983.538,714.945 983.29,714.225C983.042,713.505 982.918,712.729 982.918,711.897ZM914.35,717.537C914.126,717.089 913.826,716.577 913.45,716.001C913.074,715.425 912.662,714.849 912.214,714.273C911.766,713.697 911.31,713.141 910.846,712.605C910.382,712.069 909.95,711.609 909.55,711.225C909.87,710.873 910.226,710.489 910.618,710.073C911.01,709.657 911.402,709.225 911.794,708.777C912.186,708.329 912.566,707.889 912.934,707.457C913.302,707.025 913.63,706.625 913.918,706.257L910.366,706.257C910.174,706.593 909.95,706.949 909.694,707.325C909.438,707.701 909.17,708.089 908.89,708.489C908.61,708.889 908.322,709.277 908.026,709.653C907.73,710.029 907.438,710.385 907.15,710.721L907.15,700.881L904.174,701.385L904.174,717.537L907.15,717.537L907.15,712.209C907.454,712.497 907.786,712.861 908.146,713.301C908.506,713.741 908.862,714.205 909.214,714.693C909.566,715.181 909.898,715.677 910.21,716.181C910.522,716.685 910.774,717.137 910.966,717.537L914.35,717.537ZM873.646,717.537L873.646,711.177C873.646,710.409 873.574,709.709 873.43,709.077C873.286,708.445 873.046,707.901 872.71,707.445C872.374,706.989 871.926,706.637 871.366,706.389C870.806,706.141 870.11,706.017 869.278,706.017C869.022,706.017 868.726,706.053 868.39,706.125C868.054,706.197 867.766,706.273 867.526,706.353L867.526,700.881L864.574,701.385L864.574,717.537L867.526,717.537L867.526,708.849C867.686,708.801 867.898,708.745 868.162,708.681C868.426,708.617 868.694,708.585 868.966,708.585C869.638,708.585 870.094,708.817 870.334,709.281C870.574,709.745 870.694,710.505 870.694,711.561L870.694,717.537L873.646,717.537ZM934.174,717.537L934.174,709.161C934.59,709.049 934.998,708.973 935.398,708.933C935.798,708.893 936.206,708.873 936.622,708.873C936.798,708.873 937.014,708.881 937.27,708.897C937.526,708.913 937.79,708.941 938.062,708.981C938.334,709.021 938.602,709.065 938.866,709.113C939.13,709.161 939.358,709.209 939.55,709.257L940.078,706.521C939.806,706.425 939.498,706.349 939.154,706.293C938.81,706.237 938.47,706.189 938.134,706.149C937.798,706.109 937.482,706.081 937.186,706.065C936.89,706.049 936.662,706.041 936.502,706.041C935.398,706.041 934.434,706.129 933.61,706.305C932.786,706.481 931.982,706.713 931.198,707.001L931.198,717.537L934.174,717.537ZM974.686,715.425C975.006,715.425 975.318,715.421 975.622,715.413C975.926,715.405 976.19,715.385 976.414,715.353L976.414,712.761C976.222,712.729 975.99,712.701 975.718,712.677C975.446,712.653 975.198,712.641 974.974,712.641C974.67,712.641 974.374,712.661 974.086,712.701C973.798,712.741 973.546,712.809 973.33,712.905C973.114,713.001 972.942,713.137 972.814,713.313C972.686,713.489 972.622,713.721 972.622,714.009C972.622,714.521 972.814,714.885 973.198,715.101C973.582,715.317 974.078,715.425 974.686,715.425ZM882.286,715.425C882.606,715.425 882.918,715.421 883.222,715.413C883.526,715.405 883.79,715.385 884.014,715.353L884.014,712.761C883.822,712.729 883.59,712.701 883.318,712.677C883.046,712.653 882.798,712.641 882.574,712.641C882.27,712.641 881.974,712.661 881.686,712.701C881.398,712.741 881.146,712.809 880.93,712.905C880.714,713.001 880.542,713.137 880.414,713.313C880.286,713.489 880.222,713.721 880.222,714.009C880.222,714.521 880.414,714.885 880.798,715.101C881.182,715.317 881.678,715.425 882.286,715.425ZM963.718,711.993C963.718,710.985 963.518,710.157 963.118,709.509C962.718,708.861 962.11,708.537 961.294,708.537C961.07,708.537 960.83,708.549 960.574,708.573C960.318,708.597 960.102,708.617 959.926,708.633L959.926,714.825C960.118,714.953 960.374,715.057 960.694,715.137C961.014,715.217 961.334,715.257 961.654,715.257C962.358,715.257 962.878,714.973 963.214,714.405C963.55,713.837 963.718,713.033 963.718,711.993ZM924.166,710.817C924.166,710.513 924.126,710.221 924.046,709.941C923.966,709.661 923.838,709.409 923.662,709.185C923.486,708.961 923.262,708.781 922.99,708.645C922.718,708.509 922.382,708.441 921.982,708.441C921.598,708.441 921.266,708.505 920.986,708.633C920.706,708.761 920.474,708.937 920.29,709.161C920.106,709.385 919.962,709.641 919.858,709.929C919.754,710.217 919.686,710.513 919.654,710.817L924.166,710.817ZM1003.37,710.817C1003.37,710.513 1003.33,710.221 1003.25,709.941C1003.17,709.661 1003.04,709.409 1002.86,709.185C1002.69,708.961 1002.46,708.781 1002.19,708.645C1001.92,708.509 1001.58,708.441 1001.18,708.441C1000.8,708.441 1000.47,708.505 1000.19,708.633C999.906,708.761 999.674,708.937 999.49,709.161C999.306,709.385 999.162,709.641 999.058,709.929C998.954,710.217 998.886,710.513 998.854,710.817L1003.37,710.817ZM947.226,697.497L947.226,693.249C948.026,693.617 948.802,693.801 949.554,693.801C950.29,693.801 950.938,693.657 951.498,693.369C952.058,693.081 952.522,692.677 952.89,692.157C953.258,691.637 953.538,691.013 953.73,690.285C953.922,689.557 954.018,688.761 954.018,687.897C954.018,686.089 953.554,684.657 952.626,683.601C951.698,682.545 950.362,682.017 948.618,682.017C947.85,682.017 947.07,682.073 946.278,682.185C945.486,682.297 944.818,682.441 944.274,682.617L944.274,697.497L947.226,697.497ZM970.218,687.897C970.218,687.081 970.346,686.313 970.602,685.593C970.858,684.873 971.25,684.245 971.778,683.709C972.306,683.173 972.974,682.749 973.782,682.437C974.59,682.125 975.554,681.969 976.674,681.969C977.346,681.969 977.954,682.017 978.498,682.113C979.042,682.209 979.594,682.369 980.154,682.593L979.506,684.969C979.186,684.857 978.83,684.757 978.438,684.669C978.046,684.581 977.546,684.537 976.938,684.537C976.234,684.537 975.646,684.621 975.174,684.789C974.702,684.957 974.322,685.189 974.034,685.485C973.746,685.781 973.538,686.137 973.41,686.553C973.282,686.969 973.218,687.417 973.218,687.897C973.218,688.937 973.51,689.753 974.094,690.345C974.678,690.937 975.674,691.233 977.082,691.233C977.546,691.233 978.03,691.201 978.534,691.137C979.038,691.073 979.498,690.969 979.914,690.825L980.346,693.249C979.93,693.409 979.426,693.541 978.834,693.645C978.242,693.749 977.546,693.801 976.746,693.801C975.594,693.801 974.606,693.649 973.782,693.345C972.958,693.041 972.282,692.625 971.754,692.097C971.226,691.569 970.838,690.945 970.59,690.225C970.342,689.505 970.218,688.729 970.218,687.897ZM914.274,688.857C914.29,688.729 914.302,688.561 914.31,688.353C914.318,688.145 914.322,687.945 914.322,687.753C914.322,685.865 913.89,684.429 913.026,683.445C912.162,682.461 910.898,681.969 909.234,681.969C908.562,681.969 907.906,682.097 907.266,682.353C906.626,682.609 906.058,682.989 905.562,683.493C905.066,683.997 904.666,684.625 904.362,685.377C904.058,686.129 903.906,687.001 903.906,687.993C903.906,688.953 904.05,689.793 904.338,690.513C904.626,691.233 905.038,691.837 905.574,692.325C906.11,692.813 906.758,693.181 907.518,693.429C908.278,693.677 909.138,693.801 910.098,693.801C910.818,693.801 911.466,693.741 912.042,693.621C912.618,693.501 913.162,693.353 913.674,693.177L913.266,690.657C912.898,690.785 912.446,690.913 911.91,691.041C911.374,691.169 910.81,691.233 910.218,691.233C909.258,691.233 908.474,691.021 907.866,690.597C907.259,690.174 906.955,689.594 906.954,688.857L914.274,688.857ZM993.474,688.857C993.49,688.729 993.502,688.561 993.51,688.353C993.518,688.145 993.522,687.945 993.522,687.753C993.522,685.865 993.09,684.429 992.226,683.445C991.362,682.461 990.098,681.969 988.434,681.969C987.762,681.969 987.106,682.097 986.466,682.353C985.826,682.609 985.258,682.989 984.762,683.493C984.266,683.997 983.866,684.625 983.562,685.377C983.258,686.129 983.106,687.001 983.106,687.993C983.106,688.953 983.25,689.793 983.538,690.513C983.826,691.233 984.238,691.837 984.774,692.325C985.31,692.813 985.958,693.181 986.718,693.429C987.478,693.677 988.338,693.801 989.298,693.801C990.018,693.801 990.666,693.741 991.242,693.621C991.818,693.501 992.362,693.353 992.874,693.177L992.466,690.657C992.098,690.785 991.646,690.913 991.11,691.041C990.574,691.169 990.01,691.233 989.418,691.233C988.458,691.233 987.674,691.021 987.066,690.597C986.459,690.174 986.155,689.594 986.154,688.857L993.474,688.857ZM882.522,681.969C883.45,681.969 884.222,682.077 884.838,682.293C885.454,682.509 885.946,682.813 886.314,683.205C886.682,683.597 886.946,684.077 887.106,684.645C887.266,685.213 887.346,685.849 887.346,686.553L887.346,693.273C886.914,693.369 886.274,693.481 885.426,693.609C884.578,693.737 883.626,693.801 882.57,693.801C881.85,693.801 881.198,693.737 880.614,693.609C880.03,693.481 879.53,693.269 879.114,692.973C878.698,692.677 878.378,692.293 878.154,691.821C877.93,691.349 877.818,690.769 877.818,690.081C877.818,689.425 877.946,688.873 878.202,688.425C878.458,687.977 878.802,687.617 879.234,687.345C879.666,687.073 880.162,686.877 880.722,686.757C881.282,686.637 881.866,686.577 882.474,686.577C883.242,686.577 883.922,686.641 884.514,686.769L884.514,686.409C884.514,685.849 884.338,685.381 883.986,685.005C883.634,684.629 883.026,684.441 882.162,684.441C881.602,684.441 881.062,684.481 880.542,684.561C880.022,684.641 879.602,684.737 879.282,684.849L878.874,682.473C879.242,682.345 879.762,682.229 880.434,682.125C881.106,682.021 881.802,681.969 882.522,681.969ZM961.722,681.969C962.65,681.969 963.422,682.077 964.038,682.293C964.654,682.509 965.146,682.813 965.514,683.205C965.882,683.597 966.146,684.077 966.306,684.645C966.466,685.213 966.546,685.849 966.546,686.553L966.546,693.273C966.114,693.369 965.474,693.481 964.626,693.609C963.778,693.737 962.826,693.801 961.77,693.801C961.05,693.801 960.398,693.737 959.814,693.609C959.23,693.481 958.73,693.269 958.314,692.973C957.898,692.677 957.578,692.293 957.354,691.821C957.13,691.349 957.018,690.769 957.018,690.081C957.018,689.425 957.146,688.873 957.402,688.425C957.658,687.977 958.002,687.617 958.434,687.345C958.866,687.073 959.362,686.877 959.922,686.757C960.482,686.637 961.066,686.577 961.674,686.577C962.442,686.577 963.122,686.641 963.714,686.769L963.714,686.409C963.714,685.849 963.538,685.381 963.186,685.005C962.834,684.629 962.226,684.441 961.362,684.441C960.802,684.441 960.262,684.481 959.742,684.561C959.222,684.641 958.802,684.737 958.482,684.849L958.074,682.473C958.442,682.345 958.962,682.229 959.634,682.125C960.306,682.021 961.002,681.969 961.722,681.969ZM935.034,691.305C935.754,691.305 936.306,691.253 936.69,691.149C937.074,691.045 937.266,690.833 937.266,690.513C937.266,690.305 937.206,690.129 937.086,689.985C936.966,689.841 936.798,689.717 936.582,689.613C936.366,689.509 936.118,689.409 935.838,689.313C935.558,689.217 935.266,689.121 934.962,689.025C934.53,688.897 934.09,688.749 933.642,688.581C933.194,688.413 932.786,688.201 932.418,687.945C932.05,687.689 931.746,687.365 931.506,686.973C931.266,686.581 931.146,686.089 931.146,685.497C931.146,685.017 931.238,684.565 931.422,684.141C931.606,683.717 931.894,683.341 932.286,683.013C932.678,682.685 933.178,682.429 933.786,682.245C934.394,682.061 935.122,681.969 935.97,681.969C936.706,681.969 937.39,682.025 938.022,682.137C938.654,682.249 939.202,682.409 939.666,682.617L939.21,685.113C938.938,685.033 938.514,684.901 937.938,684.717C937.362,684.533 936.714,684.441 935.994,684.441C935.242,684.441 934.734,684.533 934.47,684.717C934.206,684.901 934.074,685.097 934.074,685.305C934.074,685.481 934.134,685.637 934.254,685.773C934.374,685.909 934.534,686.033 934.734,686.145C934.934,686.257 935.166,686.365 935.43,686.469C935.694,686.573 935.978,686.673 936.282,686.769C936.714,686.913 937.162,687.073 937.626,687.249C938.09,687.425 938.51,687.645 938.886,687.909C939.262,688.173 939.57,688.509 939.81,688.917C940.05,689.325 940.17,689.825 940.17,690.417C940.17,690.881 940.082,691.321 939.906,691.737C939.73,692.153 939.438,692.513 939.03,692.817C938.622,693.121 938.09,693.361 937.434,693.537C936.778,693.713 935.97,693.801 935.01,693.801C934.034,693.801 933.202,693.689 932.514,693.465C931.826,693.241 931.274,693.041 930.858,692.865L931.314,690.393C931.874,690.617 932.47,690.825 933.102,691.017C933.734,691.209 934.378,691.305 935.034,691.305ZM921.474,693.537L921.474,685.161C921.89,685.049 922.298,684.973 922.698,684.933C923.098,684.893 923.506,684.873 923.922,684.873C924.098,684.873 924.314,684.881 924.57,684.897C924.826,684.913 925.09,684.941 925.362,684.981C925.634,685.021 925.902,685.065 926.166,685.113C926.43,685.161 926.658,685.209 926.85,685.257L927.378,682.521C927.106,682.425 926.798,682.349 926.454,682.293C926.11,682.237 925.77,682.189 925.434,682.149C925.098,682.109 924.782,682.081 924.486,682.065C924.19,682.049 923.962,682.041 923.802,682.041C922.698,682.041 921.734,682.129 920.91,682.305C920.086,682.481 919.282,682.713 918.498,683.001L918.498,693.537L921.474,693.537ZM874.866,693.537L874.866,686.793C874.866,686.009 874.826,685.325 874.746,684.741C874.666,684.157 874.51,683.673 874.278,683.289C874.046,682.905 873.73,682.617 873.33,682.425C872.93,682.233 872.418,682.137 871.794,682.137C871.394,682.137 871.01,682.205 870.642,682.341C870.274,682.477 869.954,682.633 869.682,682.809C869.442,682.569 869.158,682.397 868.83,682.293C868.502,682.189 868.13,682.137 867.714,682.137C867.25,682.137 866.714,682.185 866.106,682.281C865.498,682.377 864.882,682.513 864.258,682.689L864.258,693.537L866.658,693.537L866.658,684.681C866.786,684.649 866.918,684.625 867.054,684.609C867.19,684.593 867.306,684.585 867.402,684.585C867.738,684.585 867.982,684.737 868.134,685.041C868.286,685.345 868.362,685.881 868.362,686.649L868.362,689.241L870.762,689.241L870.762,686.985C870.762,686.537 870.746,686.129 870.714,685.761C870.682,685.393 870.642,685.057 870.594,684.753C870.722,684.689 870.866,684.645 871.026,684.621C871.186,684.597 871.338,684.585 871.482,684.585C871.61,684.585 871.734,684.609 871.854,684.657C871.974,684.705 872.078,684.801 872.166,684.945C872.254,685.089 872.326,685.297 872.382,685.569C872.438,685.841 872.466,686.201 872.466,686.649L872.466,693.537L874.866,693.537ZM901.65,693.537C901.426,693.089 901.126,692.577 900.75,692.001C900.374,691.425 899.962,690.849 899.514,690.273C899.066,689.697 898.61,689.141 898.146,688.605C897.682,688.069 897.25,687.609 896.85,687.225C897.17,686.873 897.526,686.489 897.918,686.073C898.31,685.657 898.702,685.225 899.094,684.777C899.486,684.329 899.866,683.889 900.234,683.457C900.602,683.025 900.93,682.625 901.218,682.257L897.666,682.257C897.474,682.593 897.25,682.949 896.994,683.325C896.738,683.701 896.47,684.089 896.19,684.489C895.91,684.889 895.622,685.277 895.326,685.653C895.03,686.029 894.738,686.385 894.45,686.721L894.45,676.881L891.474,677.385L891.474,693.537L894.45,693.537L894.45,688.209C894.754,688.497 895.086,688.861 895.446,689.301C895.806,689.741 896.162,690.205 896.514,690.693C896.866,691.181 897.198,691.677 897.51,692.181C897.822,692.685 898.074,693.137 898.266,693.537L901.65,693.537ZM882.786,691.425C883.106,691.425 883.418,691.421 883.722,691.413C884.026,691.405 884.29,691.385 884.514,691.353L884.514,688.761C884.322,688.729 884.09,688.701 883.818,688.677C883.546,688.653 883.298,688.641 883.074,688.641C882.77,688.641 882.474,688.661 882.186,688.701C881.898,688.741 881.646,688.809 881.43,688.905C881.214,689.001 881.042,689.137 880.914,689.313C880.786,689.489 880.722,689.721 880.722,690.009C880.722,690.521 880.914,690.885 881.298,691.101C881.682,691.317 882.178,691.425 882.786,691.425ZM961.986,691.425C962.306,691.425 962.618,691.421 962.922,691.413C963.226,691.405 963.49,691.385 963.714,691.353L963.714,688.761C963.522,688.729 963.29,688.701 963.018,688.677C962.746,688.653 962.498,688.641 962.274,688.641C961.97,688.641 961.674,688.661 961.386,688.701C961.098,688.741 960.846,688.809 960.63,688.905C960.414,689.001 960.242,689.137 960.114,689.313C959.986,689.489 959.922,689.721 959.922,690.009C959.922,690.521 960.114,690.885 960.498,691.101C960.882,691.317 961.378,691.425 961.986,691.425ZM951.018,687.993C951.018,686.985 950.818,686.157 950.418,685.509C950.018,684.861 949.41,684.537 948.594,684.537C948.37,684.537 948.13,684.549 947.874,684.573C947.618,684.597 947.402,684.617 947.226,684.633L947.226,690.825C947.418,690.953 947.674,691.057 947.994,691.137C948.314,691.217 948.634,691.257 948.954,691.257C949.658,691.257 950.178,690.973 950.514,690.405C950.85,689.837 951.018,689.033 951.018,687.993ZM911.466,686.817C911.466,686.513 911.426,686.221 911.346,685.941C911.266,685.661 911.138,685.409 910.962,685.185C910.786,684.961 910.562,684.781 910.29,684.645C910.018,684.509 909.682,684.441 909.282,684.441C908.898,684.441 908.566,684.505 908.286,684.633C908.006,684.761 907.774,684.937 907.59,685.161C907.406,685.385 907.262,685.641 907.158,685.929C907.054,686.217 906.986,686.513 906.954,686.817L911.466,686.817ZM990.666,686.817C990.666,686.513 990.626,686.221 990.546,685.941C990.466,685.661 990.338,685.409 990.162,685.185C989.986,684.961 989.762,684.781 989.49,684.645C989.218,684.509 988.882,684.441 988.482,684.441C988.098,684.441 987.766,684.505 987.486,684.633C987.206,684.761 986.974,684.937 986.79,685.161C986.606,685.385 986.462,685.641 986.358,685.929C986.254,686.217 986.186,686.513 986.154,686.817L990.666,686.817ZM872.526,672.236L872.526,660.908C874.673,661.89 876.756,662.38 878.774,662.38C880.75,662.38 882.489,661.996 883.992,661.228C885.495,660.46 886.74,659.383 887.728,657.996C888.716,656.61 889.467,654.946 889.983,653.004C890.498,651.063 890.756,648.94 890.756,646.636C890.756,641.815 889.51,637.996 887.02,635.18C884.529,632.364 880.943,630.956 876.262,630.956C874.201,630.956 872.107,631.106 869.982,631.404C867.856,631.703 866.063,632.087 864.603,632.556L864.603,672.236L872.526,672.236ZM1058.04,646.572C1058.04,648.962 1057.7,651.127 1057.01,653.068C1056.32,655.01 1055.36,656.684 1054.11,658.092C1052.87,659.5 1051.37,660.588 1049.63,661.356C1047.9,662.124 1045.95,662.508 1043.81,662.508C1041.66,662.508 1039.71,662.124 1037.98,661.356C1036.24,660.588 1034.73,659.5 1033.47,658.092C1032.2,656.684 1031.22,655.01 1030.54,653.068C1029.85,651.127 1029.51,648.962 1029.51,646.572C1029.51,644.226 1029.86,642.082 1030.57,640.14C1031.28,638.199 1032.26,636.535 1033.53,635.148C1034.8,633.762 1036.31,632.695 1038.07,631.948C1039.83,631.202 1041.74,630.828 1043.81,630.828C1045.91,630.828 1047.83,631.202 1049.57,631.948C1051.31,632.695 1052.81,633.762 1054.08,635.148C1055.35,636.535 1056.32,638.199 1057.01,640.14C1057.7,642.082 1058.04,644.226 1058.04,646.572ZM1023.77,656.62C1023.77,658.498 1023.19,659.927 1022.03,660.908C1020.87,661.89 1019.54,662.38 1018.04,662.38C1017.27,662.38 1016.54,662.252 1015.85,661.996C1015.16,661.74 1014.55,661.367 1014.01,660.876C1013.48,660.386 1013.05,659.788 1012.73,659.084C1012.4,658.38 1012.24,657.559 1012.24,656.62C1012.24,655.724 1012.4,654.924 1012.73,654.22C1013.05,653.516 1013.48,652.93 1014.01,652.46C1014.55,651.991 1015.16,651.628 1015.85,651.372C1016.54,651.116 1017.27,650.988 1018.04,650.988C1019.54,650.988 1020.87,651.479 1022.03,652.46C1023.19,653.442 1023.77,654.828 1023.77,656.62ZM1108.67,649.196C1108.67,651.159 1109.49,652.706 1111.12,653.836C1112.75,654.967 1114.86,655.532 1117.43,655.532C1119.02,655.532 1120.54,655.362 1121.97,655.02C1123.41,654.679 1124.63,654.338 1125.61,653.996L1126.71,660.716C1125.34,661.186 1123.88,661.58 1122.33,661.9C1120.78,662.22 1119.04,662.38 1117.11,662.38C1114.53,662.38 1112.23,662.05 1110.19,661.388C1108.15,660.727 1106.41,659.746 1104.97,658.444C1103.53,657.143 1102.42,655.532 1101.65,653.612C1100.88,651.692 1100.49,649.452 1100.49,646.892C1100.49,644.247 1100.9,641.922 1101.71,639.916C1102.53,637.911 1103.61,636.236 1104.94,634.892C1106.27,633.548 1107.79,632.535 1109.51,631.852C1111.23,631.17 1112.99,630.828 1114.79,630.828C1119.26,630.828 1122.65,632.14 1124.97,634.764C1127.29,637.388 1128.45,641.218 1128.45,646.252C1128.45,646.764 1128.44,647.298 1128.42,647.852C1128.39,648.407 1128.36,648.854 1128.32,649.196L1108.67,649.196ZM996.656,649.196C996.699,648.855 996.731,648.407 996.753,647.852C996.774,647.298 996.785,646.764 996.785,646.252C996.785,641.218 995.625,637.388 993.306,634.764C990.987,632.14 987.595,630.828 983.128,630.828C981.325,630.828 979.564,631.17 977.846,631.852C976.129,632.535 974.604,633.548 973.273,634.892C971.942,636.236 970.868,637.911 970.052,639.916C969.236,641.922 968.828,644.247 968.828,646.892C968.828,649.452 969.215,651.692 969.988,653.612C970.761,655.532 971.866,657.143 973.305,658.444C974.744,659.746 976.483,660.727 978.523,661.388C980.563,662.05 982.871,662.38 985.447,662.38C987.38,662.38 989.119,662.22 990.665,661.9C992.211,661.58 993.671,661.186 995.045,660.716L993.95,653.996C992.963,654.338 991.75,654.679 990.311,655.02C988.872,655.362 987.358,655.532 985.77,655.532C983.193,655.532 981.089,654.967 979.457,653.836C977.825,652.706 977.009,651.159 977.009,649.196L996.656,649.196ZM839.803,655.724C841.735,655.724 843.217,655.586 844.247,655.308C845.278,655.031 845.793,654.466 845.793,653.612C845.793,653.058 845.632,652.588 845.31,652.204C844.988,651.82 844.537,651.49 843.957,651.212C843.378,650.935 842.712,650.668 841.961,650.412C841.209,650.156 840.425,649.9 839.609,649.644C838.45,649.303 837.269,648.908 836.066,648.46C834.864,648.012 833.769,647.447 832.781,646.764C831.794,646.082 830.978,645.218 830.333,644.172C829.689,643.127 829.367,641.815 829.367,640.236C829.367,638.956 829.614,637.751 830.108,636.62C830.602,635.49 831.375,634.487 832.427,633.612C833.479,632.738 834.821,632.055 836.453,631.564C838.085,631.074 840.039,630.828 842.315,630.828C844.29,630.828 846.126,630.978 847.822,631.276C849.519,631.575 850.99,632.002 852.235,632.556L851.011,639.212C850.281,638.999 849.143,638.647 847.597,638.156C846.051,637.666 844.312,637.42 842.379,637.42C840.361,637.42 838.997,637.666 838.289,638.156C837.58,638.647 837.226,639.17 837.226,639.724C837.226,640.194 837.387,640.61 837.709,640.972C838.031,641.335 838.461,641.666 838.997,641.964C839.534,642.263 840.157,642.551 840.865,642.828C841.574,643.106 842.336,643.372 843.152,643.628C844.312,644.012 845.514,644.439 846.76,644.908C848.005,645.378 849.132,645.964 850.141,646.668C851.151,647.372 851.977,648.268 852.621,649.356C853.266,650.444 853.588,651.778 853.588,653.356C853.588,654.594 853.351,655.767 852.879,656.876C852.407,657.986 851.623,658.946 850.528,659.756C849.433,660.567 848.005,661.207 846.244,661.676C844.484,662.146 842.315,662.38 839.738,662.38C837.119,662.38 834.886,662.082 833.039,661.484C831.192,660.887 829.711,660.354 828.594,659.884L829.818,653.292C831.321,653.89 832.921,654.444 834.617,654.956C836.313,655.468 838.042,655.724 839.803,655.724ZM934.237,646.636C934.237,644.46 934.58,642.412 935.267,640.492C935.954,638.572 937.007,636.898 938.424,635.468C939.841,634.039 941.634,632.908 943.802,632.076C945.971,631.244 948.559,630.828 951.565,630.828C953.368,630.828 955,630.956 956.46,631.212C957.92,631.468 959.402,631.895 960.905,632.492L959.166,638.828C958.307,638.53 957.351,638.263 956.299,638.028C955.247,637.794 953.905,637.676 952.273,637.676C950.384,637.676 948.805,637.9 947.539,638.348C946.272,638.796 945.252,639.415 944.479,640.204C943.706,640.994 943.148,641.943 942.804,643.052C942.46,644.162 942.289,645.356 942.289,646.636C942.289,649.41 943.072,651.586 944.64,653.164C946.207,654.743 948.881,655.532 952.66,655.532C953.905,655.532 955.204,655.447 956.557,655.276C957.91,655.106 959.144,654.828 960.261,654.444L961.42,660.908C960.304,661.335 958.951,661.687 957.362,661.964C955.773,662.242 953.905,662.38 951.758,662.38C948.666,662.38 946.014,661.975 943.802,661.164C941.591,660.354 939.776,659.244 938.359,657.836C936.942,656.428 935.901,654.764 935.235,652.844C934.569,650.924 934.237,648.855 934.237,646.636ZM911.433,630.828C913.924,630.828 915.996,631.116 917.649,631.692C919.303,632.268 920.623,633.079 921.611,634.124C922.599,635.17 923.307,636.45 923.737,637.964C924.166,639.479 924.381,641.175 924.381,643.052L924.381,660.972C923.221,661.228 921.504,661.527 919.228,661.868C916.952,662.21 914.396,662.38 911.562,662.38C909.63,662.38 907.88,662.21 906.312,661.868C904.745,661.527 903.403,660.962 902.286,660.172C901.17,659.383 900.311,658.359 899.71,657.1C899.108,655.842 898.808,654.295 898.808,652.46C898.808,650.711 899.151,649.239 899.838,648.044C900.526,646.85 901.449,645.89 902.608,645.164C903.768,644.439 905.099,643.916 906.602,643.596C908.105,643.276 909.673,643.116 911.305,643.116C913.366,643.116 915.191,643.287 916.78,643.628L916.78,642.668C916.78,641.175 916.307,639.927 915.363,638.924C914.418,637.922 912.786,637.42 910.467,637.42C908.964,637.42 907.515,637.527 906.119,637.74C904.723,637.954 903.596,638.21 902.737,638.508L901.642,632.172C902.63,631.831 904.025,631.522 905.829,631.244C907.633,630.967 909.501,630.828 911.433,630.828ZM798.898,631.596L790.589,631.596C792.392,637.655 794.293,643.234 796.29,648.332C798.286,653.431 800.251,657.879 802.184,661.676L808.818,661.676C810.751,657.879 812.812,653.431 815.002,648.332C817.192,643.234 819.189,637.655 820.993,631.596L812.941,631.596C812.554,633.218 812.05,634.946 811.427,636.78C810.805,638.615 810.16,640.46 809.495,642.316C808.829,644.172 808.153,645.975 807.466,647.724C806.779,649.474 806.156,651.074 805.598,652.524C805.039,651.074 804.449,649.474 803.826,647.724C803.204,645.975 802.592,644.172 801.99,642.316C801.389,640.46 800.82,638.615 800.283,636.78C799.747,634.946 799.285,633.218 798.898,631.596ZM1075.05,661.676L1067.12,661.676L1067.12,632.556C1068.54,632.172 1070.29,631.81 1072.37,631.468C1074.46,631.127 1076.72,630.956 1079.17,630.956C1081.58,630.956 1083.57,631.287 1085.16,631.948C1086.75,632.61 1088.01,633.548 1088.93,634.764C1089.85,635.98 1090.51,637.431 1090.89,639.116C1091.28,640.802 1091.47,642.668 1091.47,644.716L1091.47,661.676L1083.55,661.676L1083.55,645.74C1083.55,642.924 1083.23,640.898 1082.58,639.66C1081.94,638.423 1080.63,637.804 1078.65,637.804C1078.05,637.804 1077.46,637.826 1076.88,637.868C1076.3,637.911 1075.69,637.975 1075.05,638.06L1075.05,661.676ZM912.142,656.044C913.001,656.044 913.838,656.034 914.654,656.012C915.47,655.991 916.179,655.938 916.78,655.852L916.78,648.94C916.265,648.855 915.642,648.78 914.912,648.716C914.182,648.652 913.516,648.62 912.915,648.62C912.099,648.62 911.305,648.674 910.532,648.78C909.759,648.887 909.082,649.068 908.502,649.324C907.923,649.58 907.461,649.943 907.117,650.412C906.774,650.882 906.602,651.5 906.602,652.268C906.602,653.634 907.117,654.604 908.148,655.18C909.179,655.756 910.51,656.044 912.142,656.044ZM1037.56,646.636C1037.56,649.324 1038.04,651.5 1039.01,653.164C1039.97,654.828 1041.53,655.66 1043.68,655.66C1045.74,655.66 1047.3,654.828 1048.35,653.164C1049.4,651.5 1049.92,649.324 1049.92,646.636C1049.92,643.948 1049.44,641.783 1048.48,640.14C1047.51,638.498 1045.95,637.676 1043.81,637.676C1041.74,637.676 1040.19,638.498 1039.13,640.14C1038.08,641.783 1037.56,643.948 1037.56,646.636ZM882.704,646.892C882.704,644.204 882.167,641.996 881.093,640.268C880.02,638.54 878.388,637.676 876.198,637.676C875.596,637.676 874.952,637.708 874.265,637.772C873.578,637.836 872.998,637.89 872.526,637.932L872.526,654.444C873.041,654.786 873.728,655.063 874.587,655.276C875.446,655.49 876.305,655.596 877.164,655.596C879.053,655.596 880.449,654.839 881.351,653.324C882.253,651.81 882.704,649.666 882.704,646.892ZM989.119,643.756C989.119,642.946 989.012,642.167 988.797,641.42C988.582,640.674 988.239,640.002 987.766,639.404C987.294,638.807 986.693,638.327 985.963,637.964C985.233,637.602 984.331,637.42 983.257,637.42C982.227,637.42 981.336,637.591 980.584,637.932C979.833,638.274 979.21,638.743 978.716,639.34C978.222,639.938 977.836,640.62 977.556,641.388C977.277,642.156 977.095,642.946 977.009,643.756L989.119,643.756ZM1120.78,643.756C1120.78,642.946 1120.67,642.167 1120.46,641.42C1120.25,640.674 1119.9,640.002 1119.43,639.404C1118.96,638.807 1118.36,638.327 1117.63,637.964C1116.9,637.602 1115.99,637.42 1114.92,637.42C1113.89,637.42 1113,637.591 1112.25,637.932C1111.5,638.274 1110.87,638.743 1110.38,639.34C1109.89,639.938 1109.5,640.62 1109.22,641.388C1108.94,642.156 1108.76,642.946 1108.67,643.756L1120.78,643.756ZM1044.48,532.727C1041.87,534.185 1039.23,535.592 1036.57,536.949C1033.48,538.523 1030.36,540.032 1027.22,541.495L1027.13,541.539C1027.12,541.798 1027.11,542.056 1027.09,542.314C1027.08,542.599 1027.06,542.885 1027.04,543.17C1026.99,543.94 1026.93,544.709 1026.85,545.477C1026.67,547.151 1026.43,548.817 1026.12,550.47C1025.05,556.119 1023.14,561.629 1020.25,566.609C1019.48,567.939 1018.64,569.229 1017.73,570.47C1017.27,571.102 1016.78,571.719 1016.29,572.327L1016.23,572.403L1021.43,577.602C1021.74,577.345 1022.04,577.085 1022.34,576.823C1023.69,575.654 1025.01,574.445 1026.27,573.188C1028.72,570.762 1030.99,568.167 1033.05,565.405C1035.13,562.612 1036.99,559.65 1038.56,556.545C1040.08,553.545 1041.34,550.414 1042.32,547.194C1043.19,544.302 1043.84,541.342 1044.25,538.35C1044.5,536.565 1044.66,534.771 1044.76,532.972L1044.77,532.723L1044.78,532.56C1044.68,532.616 1044.58,532.671 1044.48,532.727ZM1108.35,419.491C1104.44,419.568 1100.54,419.789 1096.65,420.186C1090.21,420.845 1083.8,421.982 1077.54,423.664C1070.74,425.493 1064.1,427.969 1057.78,431.095C1053.65,433.141 1049.64,435.462 1045.81,438.03C1043.21,439.771 1040.68,441.626 1038.24,443.581C1036.49,444.986 1034.77,446.443 1033.1,447.946C1022.73,457.278 1014.07,468.374 1006.74,480.214C1005.63,482.015 1004.54,483.835 1003.49,485.671C1002.17,487.97 1000.89,490.294 999.654,492.64C998.033,495.718 996.482,498.833 994.995,501.979C993.12,505.946 991.351,509.963 989.66,514.012L989.437,514.55C990.822,515.975 992.216,517.392 993.612,518.806C995.878,521.101 998.151,523.388 1000.43,525.669C1004.76,530.002 1009.1,534.32 1013.48,538.597L1013.59,538.7C1017.82,536.945 1022.01,535.1 1026.16,533.142C1029.3,531.655 1032.42,530.104 1035.5,528.483C1038.05,527.137 1040.58,525.741 1043.08,524.293C1044.91,523.233 1046.72,522.145 1048.52,521.027C1060.22,513.728 1071.18,505.1 1080.4,494.804C1081.89,493.131 1083.35,491.415 1084.75,489.657C1086.63,487.288 1088.42,484.843 1090.11,482.327C1092.67,478.492 1095,474.492 1097.04,470.355C1100.17,464.035 1102.64,457.402 1104.47,450.594C1106.13,444.442 1107.25,438.151 1107.92,431.816C1108.34,427.82 1108.57,423.808 1108.65,419.791L1108.65,419.486C1108.55,419.488 1108.45,419.489 1108.35,419.491ZM995.616,483.065C993.974,483.147 992.336,483.288 990.705,483.501C987.847,483.873 985.016,484.455 982.244,485.247C978.832,486.222 975.514,487.516 972.338,489.097C968.909,490.804 965.65,492.844 962.593,495.151C959.621,497.394 956.84,499.887 954.256,502.567C953.066,503.8 951.921,505.075 950.811,506.38L950.643,506.579L950.534,506.709L955.729,511.904C955.841,511.811 955.953,511.72 956.065,511.628C956.328,511.416 956.328,511.416 956.592,511.207C957.12,510.794 957.654,510.389 958.199,509.998C959.275,509.227 960.385,508.502 961.523,507.826C964.656,505.965 968.001,504.47 971.459,503.326C975.132,502.112 978.934,501.29 982.776,500.847C984.028,500.703 985.283,500.603 986.542,500.538L986.776,500.527C987.108,499.813 987.444,499.1 987.781,498.389C988.123,497.671 988.467,496.955 988.814,496.24C989.962,493.88 991.14,491.535 992.361,489.212C993.399,487.237 994.468,485.279 995.566,483.337L995.723,483.06C995.687,483.062 995.652,483.064 995.616,483.065ZM1070.95,440.092C1071.71,440.106 1072.47,440.16 1073.22,440.269C1074.88,440.508 1076.51,440.989 1078.03,441.694C1080.07,442.64 1081.91,443.988 1083.44,445.637C1084.67,446.959 1085.68,448.471 1086.44,450.107C1087.24,451.816 1087.74,453.656 1087.95,455.529C1088.15,457.387 1088.04,459.276 1087.65,461.102C1087.29,462.749 1086.68,464.343 1085.86,465.816C1084.9,467.535 1083.65,469.085 1082.17,470.386C1080.67,471.714 1078.93,472.775 1077.06,473.506C1075.05,474.29 1072.9,474.694 1070.74,474.694C1068.59,474.694 1066.44,474.291 1064.43,473.506C1062.56,472.774 1060.82,471.714 1059.32,470.387C1057.84,469.086 1056.58,467.535 1055.63,465.816C1054.84,464.404 1054.25,462.88 1053.89,461.305C1053.44,459.349 1053.33,457.316 1053.57,455.323C1053.79,453.45 1054.32,451.617 1055.14,449.915C1055.88,448.353 1056.87,446.906 1058.05,445.636C1059.58,443.988 1061.42,442.64 1063.46,441.694C1064.98,440.989 1066.6,440.508 1068.26,440.269C1069.02,440.16 1069.78,440.106 1070.54,440.092C1070.75,440.091 1070.74,440.091 1070.95,440.092ZM1070.63,448.092C1070.22,448.099 1069.81,448.129 1069.4,448.187C1068.51,448.316 1067.64,448.574 1066.82,448.952C1065.73,449.461 1064.74,450.188 1063.91,451.075C1063.13,451.923 1062.5,452.916 1062.08,453.993C1061.35,455.878 1061.25,457.991 1061.8,459.939C1062.04,460.813 1062.42,461.649 1062.91,462.414C1063.49,463.31 1064.22,464.107 1065.06,464.758C1065.78,465.32 1066.59,465.772 1067.45,466.095C1068.5,466.491 1069.62,466.694 1070.74,466.694C1071.94,466.694 1073.14,466.463 1074.25,466.013C1075.21,465.623 1076.11,465.069 1076.88,464.383C1077.71,463.656 1078.41,462.787 1078.93,461.821C1079.5,460.763 1079.86,459.594 1079.99,458.398C1080.17,456.759 1079.91,455.08 1079.23,453.575C1078.82,452.658 1078.26,451.812 1077.57,451.074C1076.75,450.188 1075.76,449.461 1074.66,448.952C1073.85,448.574 1072.98,448.316 1072.09,448.187C1071.68,448.129 1071.27,448.099 1070.86,448.092C1070.74,448.091 1070.74,448.091 1070.63,448.092Z" style="fill:white;"/>
    </g>
</svg>
